#!OML:ASF E:\acrobat2\Project_11_07_03\Capture day 1\Session 1\Acrobat.ASF
:FULLY-SPECIFIED
:DEGREES
362
root 8.43243 18.1682 -14.6376 -167.055 -14.5841 -180.832
lowerback 4.10851 5.26896 4.12743
upperback 3.49763 6.95799 -4.34207
thorax 2.38556 3.57052 -6.91333
lowerneck 5.15112 20.7712 4.69324
upperneck -4.94476 27.7835 -9.1485
head -0.397537 14.0616 -3.68832
rclavicle 1.92821e-014 -4.77083e-014
rhumerus -39.683 15.9494 -82.9655
rradius 44.3201
rwrist -3.13069
rhand -0.671845 -28.3825
rfingers 7.12502
rthumb 24.9467 -56.7742
lclavicle 1.92821e-014 -4.77083e-014
lhumerus -29.7181 -38.6 92.8266
lradius 70.9494
lwrist 13.6589
lhand -24.5582 -19.8752
lfingers 7.12502
lthumb 1.93826 10.0958
rfemur -33.9634 -13.4714 22.3873
rtibia 56.0758
rfoot 16.3063 -6.17374
rtoes 5.06809
lfemur -23.4802 14.6182 -26.071
ltibia 14.0888
lfoot 23.7255 -23.1492
ltoes 34.5144
363
root 8.42712 18.1824 -14.5569 -167.329 -15.2186 -181.308
lowerback 4.0284 5.12686 3.92261
upperback 3.68384 6.74484 -4.49571
thorax 2.58736 3.4623 -6.94638
lowerneck 5.31652 20.7834 4.73875
upperneck -5.03282 27.8031 -9.13833
head -0.447359 14.074 -3.71847
rclavicle -1.25234e-013 1.19271e-014
rhumerus -40.3594 15.5654 -83.0646
rradius 44.2559
rwrist -2.69462
rhand -1.18168 -28.2939
rfingers 7.12502
rthumb 24.4581 -56.7525
lclavicle -1.25234e-013 1.19271e-014
lhumerus -29.1697 -38.4182 92.8651
lradius 70.1931
lwrist 13.5149
lhand -24.6319 -19.9678
lfingers 7.12502
lthumb 1.86705 10.0037
rfemur -33.8363 -14.1366 21.8091
rtibia 56.4138
rfoot 16.0965 -6.21666
rtoes 5.63921
lfemur -22.3759 14.7285 -26.1675
ltibia 14.3396
lfoot 24.1518 -23.8639
ltoes 35.36
364
root 8.41993 18.1866 -14.4616 -167.462 -15.6581 -181.622
lowerback 3.93673 5.07821 3.91968
upperback 3.79347 6.66839 -4.67518
thorax 2.76551 3.42936 -7.12189
lowerneck 5.47494 20.7938 4.79551
upperneck -5.07008 27.8282 -8.9591
head -0.503757 14.0829 -3.69883
rclavicle 8.71671e-014 -4.90998e-014
rhumerus -41.0393 14.9074 -83.1027
rradius 44.2608
rwrist -2.2833
rhand -1.65818 -28.3488
rfingers 7.12502
rthumb 24.0012 -56.8683
lclavicle 8.71671e-014 -4.90998e-014
lhumerus -28.5072 -38.4248 92.9088
lradius 69.3079
lwrist 13.4325
lhand -24.6726 -20.0667
lfingers 7.12502
lthumb 1.82773 9.90521
rfemur -33.9663 -14.5302 21.405
rtibia 56.6125
rfoot 16.1104 -6.06518
rtoes 5.18521
lfemur -21.4667 14.6044 -26.1476
ltibia 14.3516
lfoot 24.3164 -24.2515
ltoes 35.7086
365
root 8.48016 18.1525 -14.2753 -167.112 -14.7879 -181.171
lowerback 4.63608 5.4818 3.82338
upperback 3.31662 7.22299 -4.77726
thorax 1.96501 3.68088 -7.2657
lowerneck 5.53791 20.7878 4.81516
upperneck -5.06398 27.8282 -8.75377
head -0.541225 14.0769 -3.65346
rclavicle 5.08889e-014 -1.23246e-014
rhumerus -41.757 14.1727 -83.0987
rradius 44.2585
rwrist -2.08138
rhand -2.04272 -28.3955
rfingers 7.12502
rthumb 23.6324 -56.9631
lclavicle 5.08889e-014 -1.23246e-014
lhumerus -28.028 -38.6172 92.9716
lradius 68.6703
lwrist 13.5313
lhand -24.6358 -20.0151
lfingers 7.12502
lthumb 1.86328 9.95656
rfemur -35.7264 -12.0543 22.0901
rtibia 56.9898
rfoot 16.2274 -7.39835
rtoes 4.47521
lfemur -21.634 12.0054 -24.7361
ltibia 14.5575
lfoot 20.2447 -23.0214
ltoes 32.675
366
root 8.41619 18.17 -14.2484 -167.638 -16.354 -181.92
lowerback 3.83314 5.04108 4.08331
upperback 3.89988 6.61149 -4.93302
thorax 2.98139 3.41417 -7.47475
lowerneck 5.58652 20.8387 4.81309
upperneck -5.09453 27.8945 -8.80246
head -0.547251 14.1129 -3.67257
rclavicle -1.09332e-015 4.01545e-014
rhumerus -42.3402 13.8065 -83.0657
rradius 44.1235
rwrist -2.17921
rhand -2.45553 -28.6084
rfingers 7.12502
rthumb 23.2364 -57.2265
lclavicle -1.09332e-015 4.01545e-014
lhumerus -27.7589 -38.5747 93.0444
lradius 68.2889
lwrist 13.6263
lhand -24.5924 -20.3367
lfingers 7.12502
lthumb 1.90519 9.63456
rfemur -34.5665 -14.6553 20.9858
rtibia 57.0547
rfoot 16.0126 -5.86337
rtoes 3.40956
lfemur -19.8281 11.8093 -25.2133
ltibia 14.7554
lfoot 21.5527 -24.0012
ltoes 34.9013
367
root 8.42782 18.1663 -14.1225 -167.552 -16.4574 -182.149
lowerback 3.82239 5.04553 3.84122
upperback 3.94167 6.60413 -5.00613
thorax 3.00966 3.40224 -7.41328
lowerneck 5.57886 20.9191 4.59258
upperneck -5.22828 27.9805 -8.80401
head -0.614098 14.1598 -3.65942
rclavicle -5.56597e-015 2.82274e-014
rhumerus -42.7785 13.25 -82.8137
rradius 44.0734
rwrist -1.97791
rhand -2.79154 -28.8047
rfingers 7.12502
rthumb 22.914 -57.4632
lclavicle -5.56597e-015 2.82274e-014
lhumerus -27.201 -38.4199 93.0899
lradius 67.6475
lwrist 13.4799
lhand -24.5367 -20.7646
lfingers 7.12502
lthumb 1.95906 9.20611
rfemur -35.1672 -14.2486 20.781
rtibia 57.2741
rfoot 16.0159 -6.22783
rtoes 3.68666
lfemur -19.149 9.48232 -24.6545
ltibia 14.9956
lfoot 18.4517 -23.5932
ltoes 32.9228
368
root 8.42733 18.168 -14.004 -167.65 -16.72 -182.049
lowerback 3.86672 5.07434 4.16737
upperback 3.94448 6.65264 -5.0744
thorax 3.0463 3.44055 -7.67369
lowerneck 5.61779 20.9223 4.41758
upperneck -5.26953 27.9775 -8.54357
head -0.698674 14.1531 -3.58308
rclavicle 3.15074e-014 -9.14409e-015
rhumerus -43.4653 12.229 -82.589
rradius 44.1544
rwrist -1.95235
rhand -3.04537 -29.0043
rfingers 7.12502
rthumb 22.6704 -57.6927
lclavicle 3.15074e-014 -9.14409e-015
lhumerus -26.7653 -38.6042 93.2188
lradius 66.8741
lwrist 13.358
lhand -24.5473 -20.8875
lfingers 7.12502
lthumb 1.94883 9.08332
rfemur -35.559 -14.0827 20.8655
rtibia 57.345
rfoot 16.1111 -6.39063
rtoes 3.16966
lfemur -18.1688 7.6044 -23.9128
ltibia 14.8159
lfoot 16.384 -23.0568
ltoes 31.6628
369
root 8.42564 18.1747 -13.8889 -167.811 -17.0958 -181.994
lowerback 4.14727 5.05161 4.51982
upperback 3.80663 6.63928 -5.19893
thorax 2.80359 3.43884 -8.04043
lowerneck 5.63157 20.9427 4.37669
upperneck -4.99499 28.0191 -8.16188
head -0.672331 14.162 -3.45483
rclavicle 7.99114e-014 -1.55052e-014
rhumerus -44.3762 11.455 -82.6179
rradius 44.1474
rwrist -2.47961
rhand -3.49789 -29.3508
rfingers 7.12502
rthumb 22.2361 -58.0917
lclavicle 7.99114e-014 -1.55052e-014
lhumerus -26.8559 -38.9015 93.4486
lradius 66.5155
lwrist 13.4801
lhand -24.6268 -20.9218
lfingers 7.12502
lthumb 1.87202 9.04976
rfemur -35.8567 -14.0708 20.8585
rtibia 57.498
rfoot 16.0212 -6.47681
rtoes 2.39232
lfemur -17.3357 5.92292 -23.2976
ltibia 14.9908
lfoot 14.9512 -22.5747
ltoes 30.9838
370
root 8.43361 18.1791 -13.7674 -167.766 -17.3812 -182.255
lowerback 4.39374 4.98018 4.34514
upperback 3.67774 6.53871 -5.31138
thorax 2.50562 3.37106 -8.09307
lowerneck 5.61785 21.0443 4.30847
upperneck -4.75539 28.1581 -8.04569
head -0.609584 14.2289 -3.3905
rclavicle -6.85807e-014 -5.48646e-014
rhumerus -45.1437 10.8308 -82.5098
rradius 44.1806
rwrist -2.77193
rhand -3.93949 -29.8678
rfingers 7.12502
rthumb 21.8121 -58.6586
lclavicle -6.85807e-014 -5.48646e-014
lhumerus -26.8903 -38.9403 93.6893
lradius 66.178
lwrist 13.5355
lhand -24.7093 -20.9799
lfingers 7.12502
lthumb 1.79231 8.99229
rfemur -36.3302 -13.9489 20.5616
rtibia 57.6474
rfoot 15.9675 -6.79294
rtoes 2.64094
lfemur -16.6042 3.94912 -22.997
ltibia 15.0692
lfoot 13.3639 -21.7757
ltoes 29.8595
371
root 8.43825 18.1828 -13.6454 -167.656 -17.6382 -182.512
lowerback 4.43337 4.93268 4.14432
upperback 3.62933 6.466 -5.37729
thorax 2.4037 3.32408 -8.05645
lowerneck 5.69906 21.1056 4.20764
upperneck -4.75781 28.2322 -8.07914
head -0.62733 14.2702 -3.3988
rclavicle 6.7388e-014 -1.27222e-014
rhumerus -45.7881 9.91296 -82.1447
rradius 44.2903
rwrist -2.75838
rhand -4.30915 -30.4326
rfingers 7.12502
rthumb 21.4571 -59.2643
lclavicle 6.7388e-014 -1.27222e-014
lhumerus -26.8095 -38.9348 93.9465
lradius 65.8019
lwrist 13.499
lhand -24.7605 -21.0852
lfingers 7.12502
lthumb 1.74288 8.8874
rfemur -36.8923 -13.8626 20.2799
rtibia 57.7824
rfoot 15.9279 -7.11959
rtoes 2.73858
lfemur -15.9208 2.09464 -22.7698
ltibia 15.0775
lfoot 12.0289 -20.8328
ltoes 29.5691
